# xmcd
#
# Track frame offsets:
#	150
#	14520
#	30981
#	47787
#	79215
#	95742
#	114126
#	131928
#	143198
#	160484
#	180871
#	193845
#	205211
#	219885
#	242652
#	252102
#	264722
#	285269
#
# Disc length: 4085 seconds
#
# Revision: 1
# Processed by: cddbd v1.5.1PL0 Copyright (c) Steve Scherf et al.
# Submitted via: audiograbber 1.83.01
#
DISCID=fb0ff312
DTITLE=Bigton Gulch Town Orchestra - Regret Every Kiss
DYEAR=2004
DGENRE=Country
TTITLE0=Wicked Town of Durango
TTITLE1=Seek and Destroy
TTITLE2=Cowboy Blues
TTITLE3=A Sky More Blue
TTITLE4=In the Saloon
TTITLE5=You're Gonna Get It
TTITLE6=Am I Your Maid
TTITLE7=Rebel of the Law
TTITLE8=When You're Young
TTITLE9=Gone
TTITLE10=Diesel, Diesel, Diesel
TTITLE11=Mary McQueen
TTITLE12=Anoyone's Daughter
TTITLE13=Girls (Just Wanna Have Fun)
TTITLE14=Be My Wife
TTITLE15=Bigton Gulch Wedding
TTITLE16=Thunderstruck
TTITLE17=When I Speak of the Devil
EXTD=
EXTT0=
EXTT1=
EXTT2=
EXTT3=
EXTT4=
EXTT5=
EXTT6=
EXTT7=
EXTT8=
EXTT9=
EXTT10=
EXTT11=
EXTT12=
EXTT13=
EXTT14=
EXTT15=
EXTT16=
EXTT17=
PLAYORDER=
